<svg xmlns="http://www.w3.org/2000/svg" width="400" height="300" viewBox="0 0 400 300"><rect width="400" height="300" fill="#efe6d5"/><path d="M0 260q200-60 400 0v40H0Z" fill="#fff" opacity=".12"/><ellipse cx="203" cy="245" rx="125" ry="22" fill="#62704c" opacity=".1"/><ellipse cx="200" cy="163" rx="137" ry="100" fill="#fcfcf6"/><ellipse cx="200" cy="163" rx="118" ry="83" fill="none" stroke="#e4e7db" stroke-width="2"/><path d="m112 170 51-68 47 77Z" fill="#ce974f"/><path d="m179 193 42-81 65 65Z" fill="#dda75c"/><path d="m126 163 35-46 31 51Z" fill="#e8bd7a"/><path d="m195 185 27-56 47 46Z" fill="#e9bf80"/><g transform="translate(278 127) rotate(30)"><path d="M0 0Q-28-38 1-50Q31-25 0 0Z" fill="#718b42"/><path d="M0-3 1-40" stroke="#a5b66b" stroke-width="2"/></g><circle cx="141" cy="205" r="12" fill="#b9583d"/><circle cx="161" cy="214" r="10" fill="#bc6143"/><path d="m34 42 12 5m-9-15 2 10m312 207 12 5m-9-15 2 10" stroke="#9da583" stroke-width="2" stroke-linecap="round" opacity=".6"/></svg>